<mxfile host="app.diagrams.net" agent="Mozilla/5.0 (Windows NT 10.0; Win64; x64) AppleWebKit/537.36 (KHTML, like Gecko) Chrome/136.0.0.0 Safari/537.36" version="27.0.6">
  <diagram name="PÃ¡gina-1" id="Zq8oiolpRxW8-j1eHQIy">
    <mxGraphModel grid="1" page="1" gridSize="10" guides="1" tooltips="1" connect="1" arrows="1" fold="1" pageScale="1" pageWidth="827" pageHeight="1169" math="0" shadow="0">
      <root>
        <mxCell id="0" />
        <mxCell id="1" parent="0" />
        <mxCell id="f41anOxhTdi2pnCnQ5Af-1" value="Solicitante" style="swimlane;fontStyle=1;align=center;verticalAlign=top;childLayout=stackLayout;horizontal=1;startSize=40;horizontalStack=0;resizeParent=1;resizeParentMax=0;resizeLast=0;collapsible=0;marginBottom=0;" vertex="1" parent="1">
          <mxGeometry x="10" y="484" width="229" height="168" as="geometry" />
        </mxCell>
        <mxCell id="f41anOxhTdi2pnCnQ5Af-2" value="-nome" style="text;strokeColor=none;fillColor=none;align=left;verticalAlign=top;spacingLeft=4;spacingRight=4;overflow=hidden;rotatable=0;points=[[0,0.5],[1,0.5]];portConstraint=eastwest;" vertex="1" parent="f41anOxhTdi2pnCnQ5Af-1">
          <mxGeometry y="40" width="229" height="40" as="geometry" />
        </mxCell>
        <mxCell id="f41anOxhTdi2pnCnQ5Af-3" value="-departamento" style="text;strokeColor=none;fillColor=none;align=left;verticalAlign=top;spacingLeft=4;spacingRight=4;overflow=hidden;rotatable=0;points=[[0,0.5],[1,0.5]];portConstraint=eastwest;" vertex="1" parent="f41anOxhTdi2pnCnQ5Af-1">
          <mxGeometry y="80" width="229" height="40" as="geometry" />
        </mxCell>
        <mxCell id="f41anOxhTdi2pnCnQ5Af-4" style="line;strokeWidth=1;fillColor=none;align=left;verticalAlign=middle;spacingTop=-1;spacingLeft=3;spacingRight=3;rotatable=0;labelPosition=right;points=[];portConstraint=eastwest;strokeColor=inherit;" vertex="1" parent="f41anOxhTdi2pnCnQ5Af-1">
          <mxGeometry y="120" width="229" height="8" as="geometry" />
        </mxCell>
        <mxCell id="f41anOxhTdi2pnCnQ5Af-5" value="+submeterSolicitacao()" style="text;strokeColor=none;fillColor=none;align=left;verticalAlign=top;spacingLeft=4;spacingRight=4;overflow=hidden;rotatable=0;points=[[0,0.5],[1,0.5]];portConstraint=eastwest;" vertex="1" parent="f41anOxhTdi2pnCnQ5Af-1">
          <mxGeometry y="128" width="229" height="40" as="geometry" />
        </mxCell>
        <mxCell id="f41anOxhTdi2pnCnQ5Af-6" value="FormularioSolicitacao" style="swimlane;fontStyle=1;align=center;verticalAlign=top;childLayout=stackLayout;horizontal=1;startSize=33.142857142857146;horizontalStack=0;resizeParent=1;resizeParentMax=0;resizeLast=0;collapsible=0;marginBottom=0;" vertex="1" parent="1">
          <mxGeometry x="293" y="281" width="247" height="239.14285714285714" as="geometry" />
        </mxCell>
        <mxCell id="f41anOxhTdi2pnCnQ5Af-7" value="-dadosViagem" style="text;strokeColor=none;fillColor=none;align=left;verticalAlign=top;spacingLeft=4;spacingRight=4;overflow=hidden;rotatable=0;points=[[0,0.5],[1,0.5]];portConstraint=eastwest;" vertex="1" parent="f41anOxhTdi2pnCnQ5Af-6">
          <mxGeometry y="33.142857142857146" width="247" height="33" as="geometry" />
        </mxCell>
        <mxCell id="f41anOxhTdi2pnCnQ5Af-8" value="-dataHora" style="text;strokeColor=none;fillColor=none;align=left;verticalAlign=top;spacingLeft=4;spacingRight=4;overflow=hidden;rotatable=0;points=[[0,0.5],[1,0.5]];portConstraint=eastwest;" vertex="1" parent="f41anOxhTdi2pnCnQ5Af-6">
          <mxGeometry y="66.14285714285714" width="247" height="33" as="geometry" />
        </mxCell>
        <mxCell id="f41anOxhTdi2pnCnQ5Af-9" value="-locais" style="text;strokeColor=none;fillColor=none;align=left;verticalAlign=top;spacingLeft=4;spacingRight=4;overflow=hidden;rotatable=0;points=[[0,0.5],[1,0.5]];portConstraint=eastwest;" vertex="1" parent="f41anOxhTdi2pnCnQ5Af-6">
          <mxGeometry y="99.14285714285714" width="247" height="33" as="geometry" />
        </mxCell>
        <mxCell id="f41anOxhTdi2pnCnQ5Af-10" value="-observacoes" style="text;strokeColor=none;fillColor=none;align=left;verticalAlign=top;spacingLeft=4;spacingRight=4;overflow=hidden;rotatable=0;points=[[0,0.5],[1,0.5]];portConstraint=eastwest;" vertex="1" parent="f41anOxhTdi2pnCnQ5Af-6">
          <mxGeometry y="132.14285714285714" width="247" height="33" as="geometry" />
        </mxCell>
        <mxCell id="f41anOxhTdi2pnCnQ5Af-11" style="line;strokeWidth=1;fillColor=none;align=left;verticalAlign=middle;spacingTop=-1;spacingLeft=3;spacingRight=3;rotatable=0;labelPosition=right;points=[];portConstraint=eastwest;strokeColor=inherit;" vertex="1" parent="f41anOxhTdi2pnCnQ5Af-6">
          <mxGeometry y="165.14285714285714" width="247" height="8" as="geometry" />
        </mxCell>
        <mxCell id="f41anOxhTdi2pnCnQ5Af-12" value="+validarDados()" style="text;strokeColor=none;fillColor=none;align=left;verticalAlign=top;spacingLeft=4;spacingRight=4;overflow=hidden;rotatable=0;points=[[0,0.5],[1,0.5]];portConstraint=eastwest;" vertex="1" parent="f41anOxhTdi2pnCnQ5Af-6">
          <mxGeometry y="173.14285714285714" width="247" height="33" as="geometry" />
        </mxCell>
        <mxCell id="f41anOxhTdi2pnCnQ5Af-13" value="+enviarSolicitacao()" style="text;strokeColor=none;fillColor=none;align=left;verticalAlign=top;spacingLeft=4;spacingRight=4;overflow=hidden;rotatable=0;points=[[0,0.5],[1,0.5]];portConstraint=eastwest;" vertex="1" parent="f41anOxhTdi2pnCnQ5Af-6">
          <mxGeometry y="206.14285714285714" width="247" height="33" as="geometry" />
        </mxCell>
        <mxCell id="f41anOxhTdi2pnCnQ5Af-14" value="ValidadorHorario" style="swimlane;fontStyle=1;align=center;verticalAlign=top;childLayout=stackLayout;horizontal=1;startSize=40.57142857142857;horizontalStack=0;resizeParent=1;resizeParentMax=0;resizeLast=0;collapsible=0;marginBottom=0;" vertex="1" parent="1">
          <mxGeometry x="780" y="210" width="277" height="130.57142857142856" as="geometry" />
        </mxCell>
        <mxCell id="f41anOxhTdi2pnCnQ5Af-15" style="line;strokeWidth=1;fillColor=none;align=left;verticalAlign=middle;spacingTop=-1;spacingLeft=3;spacingRight=3;rotatable=0;labelPosition=right;points=[];portConstraint=eastwest;strokeColor=inherit;" vertex="1" parent="f41anOxhTdi2pnCnQ5Af-14">
          <mxGeometry y="40.57142857142857" width="277" height="8" as="geometry" />
        </mxCell>
        <mxCell id="f41anOxhTdi2pnCnQ5Af-16" value="+validarCargaHoraria()" style="text;strokeColor=none;fillColor=none;align=left;verticalAlign=top;spacingLeft=4;spacingRight=4;overflow=hidden;rotatable=0;points=[[0,0.5],[1,0.5]];portConstraint=eastwest;" vertex="1" parent="f41anOxhTdi2pnCnQ5Af-14">
          <mxGeometry y="48.57142857142857" width="277" height="41" as="geometry" />
        </mxCell>
        <mxCell id="f41anOxhTdi2pnCnQ5Af-17" value="+verificarDisponibilidade()" style="text;strokeColor=none;fillColor=none;align=left;verticalAlign=top;spacingLeft=4;spacingRight=4;overflow=hidden;rotatable=0;points=[[0,0.5],[1,0.5]];portConstraint=eastwest;" vertex="1" parent="f41anOxhTdi2pnCnQ5Af-14">
          <mxGeometry y="89.57142857142857" width="277" height="41" as="geometry" />
        </mxCell>
        <mxCell id="f41anOxhTdi2pnCnQ5Af-18" value="SistemaSolicitacao" style="swimlane;fontStyle=1;align=center;verticalAlign=top;childLayout=stackLayout;horizontal=1;startSize=36.888888888888886;horizontalStack=0;resizeParent=1;resizeParentMax=0;resizeLast=0;collapsible=0;marginBottom=0;" vertex="1" parent="1">
          <mxGeometry x="720" y="390" width="302" height="155.88888888888889" as="geometry" />
        </mxCell>
        <mxCell id="f41anOxhTdi2pnCnQ5Af-19" style="line;strokeWidth=1;fillColor=none;align=left;verticalAlign=middle;spacingTop=-1;spacingLeft=3;spacingRight=3;rotatable=0;labelPosition=right;points=[];portConstraint=eastwest;strokeColor=inherit;" vertex="1" parent="f41anOxhTdi2pnCnQ5Af-18">
          <mxGeometry y="36.888888888888886" width="302" height="8" as="geometry" />
        </mxCell>
        <mxCell id="f41anOxhTdi2pnCnQ5Af-20" value="+processarSolicitacao()" style="text;strokeColor=none;fillColor=none;align=left;verticalAlign=top;spacingLeft=4;spacingRight=4;overflow=hidden;rotatable=0;points=[[0,0.5],[1,0.5]];portConstraint=eastwest;" vertex="1" parent="f41anOxhTdi2pnCnQ5Af-18">
          <mxGeometry y="44.888888888888886" width="302" height="37" as="geometry" />
        </mxCell>
        <mxCell id="f41anOxhTdi2pnCnQ5Af-21" value="+encaminharParaAprovacao()" style="text;strokeColor=none;fillColor=none;align=left;verticalAlign=top;spacingLeft=4;spacingRight=4;overflow=hidden;rotatable=0;points=[[0,0.5],[1,0.5]];portConstraint=eastwest;" vertex="1" parent="f41anOxhTdi2pnCnQ5Af-18">
          <mxGeometry y="81.88888888888889" width="302" height="37" as="geometry" />
        </mxCell>
        <mxCell id="f41anOxhTdi2pnCnQ5Af-22" value="+notificarGestor()" style="text;strokeColor=none;fillColor=none;align=left;verticalAlign=top;spacingLeft=4;spacingRight=4;overflow=hidden;rotatable=0;points=[[0,0.5],[1,0.5]];portConstraint=eastwest;" vertex="1" parent="f41anOxhTdi2pnCnQ5Af-18">
          <mxGeometry y="118.88888888888889" width="302" height="37" as="geometry" />
        </mxCell>
        <mxCell id="f41anOxhTdi2pnCnQ5Af-23" value="Gestor" style="swimlane;fontStyle=1;align=center;verticalAlign=top;childLayout=stackLayout;horizontal=1;startSize=34.54545454545455;horizontalStack=0;resizeParent=1;resizeParentMax=0;resizeLast=0;collapsible=0;marginBottom=0;" vertex="1" parent="1">
          <mxGeometry x="1254" y="301.45" width="294" height="182.54545454545456" as="geometry" />
        </mxCell>
        <mxCell id="f41anOxhTdi2pnCnQ5Af-24" style="line;strokeWidth=1;fillColor=none;align=left;verticalAlign=middle;spacingTop=-1;spacingLeft=3;spacingRight=3;rotatable=0;labelPosition=right;points=[];portConstraint=eastwest;strokeColor=inherit;" vertex="1" parent="f41anOxhTdi2pnCnQ5Af-23">
          <mxGeometry y="34.54545454545455" width="294" height="8" as="geometry" />
        </mxCell>
        <mxCell id="f41anOxhTdi2pnCnQ5Af-25" value="+visualizarSolicitacoesPendentes()" style="text;strokeColor=none;fillColor=none;align=left;verticalAlign=top;spacingLeft=4;spacingRight=4;overflow=hidden;rotatable=0;points=[[0,0.5],[1,0.5]];portConstraint=eastwest;" vertex="1" parent="f41anOxhTdi2pnCnQ5Af-23">
          <mxGeometry y="42.54545454545455" width="294" height="35" as="geometry" />
        </mxCell>
        <mxCell id="f41anOxhTdi2pnCnQ5Af-26" value="+aprovarSolicitacao()" style="text;strokeColor=none;fillColor=none;align=left;verticalAlign=top;spacingLeft=4;spacingRight=4;overflow=hidden;rotatable=0;points=[[0,0.5],[1,0.5]];portConstraint=eastwest;" vertex="1" parent="f41anOxhTdi2pnCnQ5Af-23">
          <mxGeometry y="77.54545454545455" width="294" height="35" as="geometry" />
        </mxCell>
        <mxCell id="f41anOxhTdi2pnCnQ5Af-27" value="+negarSolicitacao()" style="text;strokeColor=none;fillColor=none;align=left;verticalAlign=top;spacingLeft=4;spacingRight=4;overflow=hidden;rotatable=0;points=[[0,0.5],[1,0.5]];portConstraint=eastwest;" vertex="1" parent="f41anOxhTdi2pnCnQ5Af-23">
          <mxGeometry y="112.54545454545455" width="294" height="35" as="geometry" />
        </mxCell>
        <mxCell id="f41anOxhTdi2pnCnQ5Af-28" value="+atribuirMotoristaVeiculo()" style="text;strokeColor=none;fillColor=none;align=left;verticalAlign=top;spacingLeft=4;spacingRight=4;overflow=hidden;rotatable=0;points=[[0,0.5],[1,0.5]];portConstraint=eastwest;" vertex="1" parent="f41anOxhTdi2pnCnQ5Af-23">
          <mxGeometry y="147.54545454545456" width="294" height="35" as="geometry" />
        </mxCell>
        <mxCell id="f41anOxhTdi2pnCnQ5Af-29" value="Motorista" style="swimlane;fontStyle=1;align=center;verticalAlign=top;childLayout=stackLayout;horizontal=1;startSize=40;horizontalStack=0;resizeParent=1;resizeParentMax=0;resizeLast=0;collapsible=0;marginBottom=0;" vertex="1" parent="1">
          <mxGeometry x="2058" y="538.46" width="192" height="168" as="geometry" />
        </mxCell>
        <mxCell id="f41anOxhTdi2pnCnQ5Af-30" value="-nome" style="text;strokeColor=none;fillColor=none;align=left;verticalAlign=top;spacingLeft=4;spacingRight=4;overflow=hidden;rotatable=0;points=[[0,0.5],[1,0.5]];portConstraint=eastwest;" vertex="1" parent="f41anOxhTdi2pnCnQ5Af-29">
          <mxGeometry y="40" width="192" height="40" as="geometry" />
        </mxCell>
        <mxCell id="f41anOxhTdi2pnCnQ5Af-31" value="-disponibilidade" style="text;strokeColor=none;fillColor=none;align=left;verticalAlign=top;spacingLeft=4;spacingRight=4;overflow=hidden;rotatable=0;points=[[0,0.5],[1,0.5]];portConstraint=eastwest;" vertex="1" parent="f41anOxhTdi2pnCnQ5Af-29">
          <mxGeometry y="80" width="192" height="40" as="geometry" />
        </mxCell>
        <mxCell id="f41anOxhTdi2pnCnQ5Af-32" style="line;strokeWidth=1;fillColor=none;align=left;verticalAlign=middle;spacingTop=-1;spacingLeft=3;spacingRight=3;rotatable=0;labelPosition=right;points=[];portConstraint=eastwest;strokeColor=inherit;" vertex="1" parent="f41anOxhTdi2pnCnQ5Af-29">
          <mxGeometry y="120" width="192" height="8" as="geometry" />
        </mxCell>
        <mxCell id="f41anOxhTdi2pnCnQ5Af-33" value="+verificarAgenda()" style="text;strokeColor=none;fillColor=none;align=left;verticalAlign=top;spacingLeft=4;spacingRight=4;overflow=hidden;rotatable=0;points=[[0,0.5],[1,0.5]];portConstraint=eastwest;" vertex="1" parent="f41anOxhTdi2pnCnQ5Af-29">
          <mxGeometry y="128" width="192" height="40" as="geometry" />
        </mxCell>
        <mxCell id="f41anOxhTdi2pnCnQ5Af-34" value="Veiculo" style="swimlane;fontStyle=1;align=center;verticalAlign=top;childLayout=stackLayout;horizontal=1;startSize=35.55555555555556;horizontalStack=0;resizeParent=1;resizeParentMax=0;resizeLast=0;collapsible=0;marginBottom=0;" vertex="1" parent="1">
          <mxGeometry x="1920" y="220" width="166" height="161.55555555555554" as="geometry" />
        </mxCell>
        <mxCell id="f41anOxhTdi2pnCnQ5Af-35" value="-tipo" style="text;strokeColor=none;fillColor=none;align=left;verticalAlign=top;spacingLeft=4;spacingRight=4;overflow=hidden;rotatable=0;points=[[0,0.5],[1,0.5]];portConstraint=eastwest;" vertex="1" parent="f41anOxhTdi2pnCnQ5Af-34">
          <mxGeometry y="35.55555555555556" width="166" height="36" as="geometry" />
        </mxCell>
        <mxCell id="f41anOxhTdi2pnCnQ5Af-36" value="-placa" style="text;strokeColor=none;fillColor=none;align=left;verticalAlign=top;spacingLeft=4;spacingRight=4;overflow=hidden;rotatable=0;points=[[0,0.5],[1,0.5]];portConstraint=eastwest;" vertex="1" parent="f41anOxhTdi2pnCnQ5Af-34">
          <mxGeometry y="71.55555555555556" width="166" height="36" as="geometry" />
        </mxCell>
        <mxCell id="f41anOxhTdi2pnCnQ5Af-37" value="-disponibilidade" style="text;strokeColor=none;fillColor=none;align=left;verticalAlign=top;spacingLeft=4;spacingRight=4;overflow=hidden;rotatable=0;points=[[0,0.5],[1,0.5]];portConstraint=eastwest;" vertex="1" parent="f41anOxhTdi2pnCnQ5Af-34">
          <mxGeometry y="107.55555555555556" width="166" height="36" as="geometry" />
        </mxCell>
        <mxCell id="f41anOxhTdi2pnCnQ5Af-38" style="line;strokeWidth=1;fillColor=none;align=left;verticalAlign=middle;spacingTop=-1;spacingLeft=3;spacingRight=3;rotatable=0;labelPosition=right;points=[];portConstraint=eastwest;strokeColor=inherit;" vertex="1" parent="f41anOxhTdi2pnCnQ5Af-34">
          <mxGeometry y="143.55555555555554" width="166" height="18" as="geometry" />
        </mxCell>
        <mxCell id="f41anOxhTdi2pnCnQ5Af-39" value="ServicoNotificacao" style="swimlane;fontStyle=1;align=center;verticalAlign=top;childLayout=stackLayout;horizontal=1;startSize=40.57142857142857;horizontalStack=0;resizeParent=1;resizeParentMax=0;resizeLast=0;collapsible=0;marginBottom=0;" vertex="1" parent="1">
          <mxGeometry x="1200" y="590" width="254" height="130.57142857142856" as="geometry" />
        </mxCell>
        <mxCell id="f41anOxhTdi2pnCnQ5Af-40" style="line;strokeWidth=1;fillColor=none;align=left;verticalAlign=middle;spacingTop=-1;spacingLeft=3;spacingRight=3;rotatable=0;labelPosition=right;points=[];portConstraint=eastwest;strokeColor=inherit;" vertex="1" parent="f41anOxhTdi2pnCnQ5Af-39">
          <mxGeometry y="40.57142857142857" width="254" height="8" as="geometry" />
        </mxCell>
        <mxCell id="f41anOxhTdi2pnCnQ5Af-41" value="+enviarEmailStatus()" style="text;strokeColor=none;fillColor=none;align=left;verticalAlign=top;spacingLeft=4;spacingRight=4;overflow=hidden;rotatable=0;points=[[0,0.5],[1,0.5]];portConstraint=eastwest;" vertex="1" parent="f41anOxhTdi2pnCnQ5Af-39">
          <mxGeometry y="48.57142857142857" width="254" height="41" as="geometry" />
        </mxCell>
        <mxCell id="f41anOxhTdi2pnCnQ5Af-42" value="+atualizarCalendario()" style="text;strokeColor=none;fillColor=none;align=left;verticalAlign=top;spacingLeft=4;spacingRight=4;overflow=hidden;rotatable=0;points=[[0,0.5],[1,0.5]];portConstraint=eastwest;" vertex="1" parent="f41anOxhTdi2pnCnQ5Af-39">
          <mxGeometry y="89.57142857142857" width="254" height="41" as="geometry" />
        </mxCell>
        <mxCell id="f41anOxhTdi2pnCnQ5Af-43" value="Calendario" style="swimlane;fontStyle=1;align=center;verticalAlign=top;childLayout=stackLayout;horizontal=1;startSize=40.57142857142857;horizontalStack=0;resizeParent=1;resizeParentMax=0;resizeLast=0;collapsible=0;marginBottom=0;" vertex="1" parent="1">
          <mxGeometry x="1644" y="590" width="200" height="130.57142857142856" as="geometry" />
        </mxCell>
        <mxCell id="f41anOxhTdi2pnCnQ5Af-44" style="line;strokeWidth=1;fillColor=none;align=left;verticalAlign=middle;spacingTop=-1;spacingLeft=3;spacingRight=3;rotatable=0;labelPosition=right;points=[];portConstraint=eastwest;strokeColor=inherit;" vertex="1" parent="f41anOxhTdi2pnCnQ5Af-43">
          <mxGeometry y="40.57142857142857" width="200" height="8" as="geometry" />
        </mxCell>
        <mxCell id="f41anOxhTdi2pnCnQ5Af-45" value="+adicionarEvento()" style="text;strokeColor=none;fillColor=none;align=left;verticalAlign=top;spacingLeft=4;spacingRight=4;overflow=hidden;rotatable=0;points=[[0,0.5],[1,0.5]];portConstraint=eastwest;" vertex="1" parent="f41anOxhTdi2pnCnQ5Af-43">
          <mxGeometry y="48.57142857142857" width="200" height="41" as="geometry" />
        </mxCell>
        <mxCell id="f41anOxhTdi2pnCnQ5Af-46" value="+atualizarAgenda()" style="text;strokeColor=none;fillColor=none;align=left;verticalAlign=top;spacingLeft=4;spacingRight=4;overflow=hidden;rotatable=0;points=[[0,0.5],[1,0.5]];portConstraint=eastwest;" vertex="1" parent="f41anOxhTdi2pnCnQ5Af-43">
          <mxGeometry y="89.57142857142857" width="200" height="41" as="geometry" />
        </mxCell>
        <mxCell id="f41anOxhTdi2pnCnQ5Af-47" value="1. Preenche" style="curved=1;startArrow=none;endArrow=open;endSize=12;exitX=0.81;exitY=0;entryX=0;entryY=0.5;rounded=0;" edge="1" parent="1" source="f41anOxhTdi2pnCnQ5Af-1" target="f41anOxhTdi2pnCnQ5Af-6">
          <mxGeometry relative="1" as="geometry">
            <Array as="points">
              <mxPoint x="266" y="401" />
            </Array>
          </mxGeometry>
        </mxCell>
        <mxCell id="f41anOxhTdi2pnCnQ5Af-48" value="2. Solicita validaÃ§Ã£o" style="curved=1;startArrow=none;endArrow=open;endSize=12;exitX=1;exitY=0.1;entryX=0;entryY=0.44;rounded=0;" edge="1" parent="1" source="f41anOxhTdi2pnCnQ5Af-6" target="f41anOxhTdi2pnCnQ5Af-14">
          <mxGeometry relative="1" as="geometry">
            <Array as="points">
              <mxPoint x="567" y="283" />
            </Array>
          </mxGeometry>
        </mxCell>
        <mxCell id="f41anOxhTdi2pnCnQ5Af-49" value="3. Retorna resultado" style="curved=1;startArrow=none;endArrow=open;endSize=12;exitX=0;exitY=0.96;entryX=1;entryY=0.44;rounded=0;" edge="1" parent="1" source="f41anOxhTdi2pnCnQ5Af-14" target="f41anOxhTdi2pnCnQ5Af-6">
          <mxGeometry relative="1" as="geometry">
            <Array as="points">
              <mxPoint x="567" y="385" />
            </Array>
          </mxGeometry>
        </mxCell>
        <mxCell id="f41anOxhTdi2pnCnQ5Af-50" value="4. Envia dados validados" style="curved=1;startArrow=none;endArrow=open;endSize=12;exitX=1;exitY=0.86;entryX=0;entryY=0.5;rounded=0;" edge="1" parent="1" source="f41anOxhTdi2pnCnQ5Af-6" target="f41anOxhTdi2pnCnQ5Af-18">
          <mxGeometry relative="1" as="geometry">
            <Array as="points">
              <mxPoint x="567" y="507" />
            </Array>
          </mxGeometry>
        </mxCell>
        <mxCell id="f41anOxhTdi2pnCnQ5Af-51" value="5. Notifica nova solicitaÃ§Ã£o" style="curved=1;startArrow=none;endArrow=open;endSize=12;exitX=0.97;exitY=0;entryX=0;entryY=0.4;rounded=0;" edge="1" parent="1" source="f41anOxhTdi2pnCnQ5Af-18" target="f41anOxhTdi2pnCnQ5Af-23">
          <mxGeometry relative="1" as="geometry">
            <Array as="points" />
          </mxGeometry>
        </mxCell>
        <mxCell id="f41anOxhTdi2pnCnQ5Af-52" value="6. Verifica disponibilidade" style="curved=1;startArrow=none;endArrow=open;endSize=12;exitX=1;exitY=0.69;entryX=0.2;entryY=0;rounded=0;" edge="1" parent="1" source="f41anOxhTdi2pnCnQ5Af-23" target="f41anOxhTdi2pnCnQ5Af-29">
          <mxGeometry relative="1" as="geometry">
            <Array as="points">
              <mxPoint x="1526" y="467" />
            </Array>
          </mxGeometry>
        </mxCell>
        <mxCell id="f41anOxhTdi2pnCnQ5Af-53" value="7. Verifica disponibilidade" style="curved=1;startArrow=none;endArrow=open;endSize=12;exitX=1;exitY=0.17;entryX=0;entryY=0.5;rounded=0;" edge="1" parent="1" source="f41anOxhTdi2pnCnQ5Af-23" target="f41anOxhTdi2pnCnQ5Af-34">
          <mxGeometry relative="1" as="geometry">
            <Array as="points" />
          </mxGeometry>
        </mxCell>
        <mxCell id="f41anOxhTdi2pnCnQ5Af-54" value="8. Informa decisÃ£o" style="curved=1;startArrow=none;endArrow=open;endSize=12;exitX=0;exitY=0.72;entryX=1;entryY=0.33;rounded=0;" edge="1" parent="1" source="f41anOxhTdi2pnCnQ5Af-23" target="f41anOxhTdi2pnCnQ5Af-18">
          <mxGeometry relative="1" as="geometry">
            <Array as="points" />
          </mxGeometry>
        </mxCell>
        <mxCell id="f41anOxhTdi2pnCnQ5Af-55" value="9. Solicita notificaÃ§Ã£o" style="curved=1;startArrow=none;endArrow=open;endSize=12;exitX=1;exitY=0.74;entryX=0;entryY=0.07;rounded=0;" edge="1" parent="1" source="f41anOxhTdi2pnCnQ5Af-18" target="f41anOxhTdi2pnCnQ5Af-39">
          <mxGeometry relative="1" as="geometry">
            <Array as="points" />
          </mxGeometry>
        </mxCell>
        <mxCell id="f41anOxhTdi2pnCnQ5Af-56" value="10. Envia email" style="curved=1;startArrow=none;endArrow=open;endSize=12;exitX=0;exitY=0.5;entryX=1;entryY=0.87;rounded=0;" edge="1" parent="1" source="f41anOxhTdi2pnCnQ5Af-39" target="f41anOxhTdi2pnCnQ5Af-1">
          <mxGeometry relative="1" as="geometry">
            <Array as="points">
              <mxPoint x="266" y="646" />
            </Array>
          </mxGeometry>
        </mxCell>
        <mxCell id="f41anOxhTdi2pnCnQ5Af-57" value="11. Atualiza agenda" style="curved=1;startArrow=none;endArrow=open;endSize=12;exitX=1;exitY=0.5;entryX=0;entryY=0.5;rounded=0;" edge="1" parent="1" source="f41anOxhTdi2pnCnQ5Af-39" target="f41anOxhTdi2pnCnQ5Af-43">
          <mxGeometry relative="1" as="geometry">
            <Array as="points" />
          </mxGeometry>
        </mxCell>
        <mxCell id="f41anOxhTdi2pnCnQ5Af-58" value="12. Atualiza compromissos" style="curved=1;startArrow=none;endArrow=open;endSize=12;exitX=1;exitY=0.5;entryX=0;entryY=0.5;rounded=0;" edge="1" parent="1" source="f41anOxhTdi2pnCnQ5Af-43" target="f41anOxhTdi2pnCnQ5Af-29">
          <mxGeometry relative="1" as="geometry">
            <Array as="points" />
          </mxGeometry>
        </mxCell>
      </root>
    </mxGraphModel>
  </diagram>
</mxfile>
